<svg xmlns="http://www.w3.org/2000/svg" xmlns:xlink="http://www.w3.org/1999/xlink" aria-hidden="true" focusable="false"
  width="1em" height="1em"
  style="-ms-transform: rotate(360deg); -webkit-transform: rotate(360deg); transform: rotate(360deg);"
  preserveAspectRatio="xMidYMid meet" viewBox="0 0 24 24">
  <path
    d="M4 3c-1.11 0-2 .89-2 2v10a2 2 0 0 0 2 2h8v5l3-3l3 3v-5h2a2 2 0 0 0 2-2V5a2 2 0 0 0-2-2H4m8 2l3 2l3-2v3.5l3 1.5l-3 1.5V15l-3-2l-3 2v-3.5L9 10l3-1.5V5M4 5h5v2H4V5m0 4h3v2H4V9m0 4h5v2H4v-2z" />
  </svg>