<svg width="186" height="372" viewBox="0 0 186 372" fill="none" xmlns="http://www.w3.org/2000/svg">
  <path
    d="M93 1.61802L113.404 64.4159L113.517 64.7614H113.88H179.909L126.49 103.573L126.196 103.786L126.309 104.132L146.713 166.93L93.2939 128.118L93 127.905L92.7061 128.118L39.287 166.93L59.6913 104.132L59.8036 103.786L59.5097 103.573L6.09058 64.7614H72.1202H72.4835L72.5957 64.4159L93 1.61802Z"
    stroke="#000E56" />
  <path
    d="M93 186L113.88 250.261H181.448L126.784 289.977L147.664 354.239L93 314.523L38.336 354.239L59.2158 289.977L4.55174 250.261H72.1202L93 186Z"
    fill="#000E56" />
</svg>